<svg xmlns="http://www.w3.org/2000/svg" aria-hidden="true" style="position:absolute;width:0;height:0;overflow:hidden">
  <defs>
    <symbol id="icon-list-style" viewBox="0 0 32 32">
      <path d="M10.024 30.09c-.198.198-.447.298-.719.298s-.521-.099-.719-.298a1.018 1.018 0 0 1 0-1.439L21.237 16 8.586 3.349a1.018 1.018 0 0 1 1.439-1.439l13.371 13.371a1.018 1.018 0 0 1 0 1.439L10.025 30.091z" />
    </symbol>
    <symbol id="icon-map" viewBox="0 0 32 32">
      <path d="M15.978 0C9.511 0 4.25 5.261 4.25 11.728c0 2.971 1.872 7.168 5.564 12.475 2.698 3.88 5.353 6.882 5.464 7.008l.7.789.7-.789a83.531 83.531 0 0 0 5.464-7.008c3.692-5.307 5.564-9.505 5.564-12.475C27.706 5.261 22.445 0 15.978 0zm4.638 23.12a85.031 85.031 0 0 1-4.639 6.035 85.105 85.105 0 0 1-4.628-6.019C7.928 18.219 6.12 14.274 6.12 11.729c0-5.435 4.422-9.857 9.857-9.857s9.857 4.422 9.857 9.857c0 2.542-1.804 6.481-5.218 11.392z" />
      <path d="M15.976 4.334c-3.817 0-6.922 3.105-6.922 6.922s3.105 6.922 6.922 6.922c3.817 0 6.922-3.105 6.922-6.922s-3.105-6.922-6.922-6.922zm0 11.973c-2.785 0-5.051-2.266-5.051-5.051s2.266-5.051 5.051-5.051 5.051 2.266 5.051 5.051-2.266 5.051-5.051 5.051z" />
    </symbol>
    <symbol id="icon-call" viewBox="0 0 32 32">
      <path d="m31.16 24.687-6.477-4.319a1.89 1.89 0 0 0-2.531.411l-1.887 2.426a.807.807 0 0 1-1.034.218l-.359-.198c-1.19-.648-2.67-1.456-5.652-4.439s-3.791-4.465-4.44-5.652l-.197-.359a.807.807 0 0 1 .213-1.038l2.424-1.886a1.89 1.89 0 0 0 .412-2.531L7.313.843A1.88 1.88 0 0 0 4.778.272L2.07 1.899A3.822 3.822 0 0 0 .328 4.16c-.975 3.554-.242 9.687 8.793 18.722C16.308 30.068 21.658 32 25.335 32a9.427 9.427 0 0 0 2.506-.327 3.815 3.815 0 0 0 2.261-1.742l1.629-2.707a1.88 1.88 0 0 0-.57-2.536zm-.348 1.989-1.625 2.708a2.761 2.761 0 0 1-1.626 1.261c-3.281.901-9.012.155-17.685-8.519S.457 7.722 1.357 4.441a2.765 2.765 0 0 1 1.262-1.629l2.708-1.625a.816.816 0 0 1 1.1.247l4.316 6.476a.822.822 0 0 1-.178 1.099L8.14 10.895a1.865 1.865 0 0 0-.494 2.395l.193.35c.682 1.25 1.529 2.805 4.622 5.898s4.648 3.94 5.897 4.622l.35.193c.81.454 1.831.243 2.395-.494l1.886-2.425a.822.822 0 0 1 1.099-.178l6.476 4.319a.814.814 0 0 1 .247 1.1zM18.133 5.336c5.004.006 9.06 4.061 9.065 9.065a.533.533 0 1 0 1.066 0c-.006-5.593-4.539-10.126-10.132-10.132a.533.533 0 0 0 0 1.066z" />
      <path d="M18.133 8.536a5.873 5.873 0 0 1 5.866 5.866.533.533 0 0 0 1.066 0 6.94 6.94 0 0 0-6.932-6.932.533.533 0 0 0 0 1.066z" />
      <path d="M18.133 11.736a2.668 2.668 0 0 1 2.666 2.666.533.533 0 1 0 1.066 0 3.737 3.737 0 0 0-3.733-3.733.533.533 0 0 0 0 1.066z" />
    </symbol>
    <symbol id="icon-mail" viewBox="0 0 32 32">
      <path d="M28.093 3.823H3.913A3.917 3.917 0 0 0 0 7.736v16.526a3.916 3.916 0 0 0 3.913 3.913h24.174A3.916 3.916 0 0 0 32 24.262V7.742a3.912 3.912 0 0 0-3.907-3.92zm2.126 20.44a2.127 2.127 0 0 1-2.125 2.125H3.914a2.127 2.127 0 0 1-2.125-2.125V7.743c0-1.172.953-2.125 2.125-2.125h24.174c1.172 0 2.125.953 2.125 2.125v16.52h.007z" />
      <path d="m20.181 15.795 7.826-7.018a.899.899 0 0 0 .066-1.265.899.899 0 0 0-1.265-.066l-10.792 9.687-2.105-1.88c-.007-.007-.013-.013-.013-.02a1.362 1.362 0 0 0-.146-.126L5.184 7.44c-.371-.331-.934-.298-1.265.073s-.298.934.073 1.265l7.919 7.078-7.886 7.383a.898.898 0 0 0 1.225 1.312l8.005-7.488 2.172 1.94a.894.894 0 0 0 1.192-.007l2.231-2 7.959 7.561a.896.896 0 0 0 1.265-.033.898.898 0 0 0-.033-1.265l-7.859-7.462z" />
    </symbol>
    <symbol id="icon-web" viewBox="0 0 32 32">
      <path fill="#4985ff" d="M12.626 22.425a.528.528 0 0 1-.342-.126l-3.419-2.911a.527.527 0 0 1 0-.804l3.419-2.911a.529.529 0 0 1 .685.805l-2.946 2.509 2.946 2.509a.529.529 0 0 1-.343.931zM19.374 22.425a.529.529 0 0 1-.342-.931l2.946-2.509-2.946-2.509a.529.529 0 0 1 .684-.805l3.419 2.911a.527.527 0 0 1 0 .804l-3.419 2.911a.523.523 0 0 1-.342.126zM14.79 24.609a.529.529 0 0 1-.518-.638l2.131-10.116a.529.529 0 0 1 1.034.218l-2.131 10.116a.528.528 0 0 1-.516.42z" style="fill:var(--color2, #4985ff)"/>
      <path fill="#4985ff" d="M28.453 30.12H3.547A3.55 3.55 0 0 1 0 26.573V5.434a3.55 3.55 0 0 1 3.547-3.547h24.906A3.55 3.55 0 0 1 32 5.434v21.139a3.55 3.55 0 0 1-3.547 3.547zM3.547 2.944a2.494 2.494 0 0 0-2.491 2.491v21.139a2.494 2.494 0 0 0 2.491 2.491h24.906a2.494 2.494 0 0 0 2.491-2.491V5.435a2.494 2.494 0 0 0-2.491-2.491H3.547z" style="fill:var(--color2, #4985ff)"/>
      <path fill="#4985ff" d="M31.472 10.346H.529a.527.527 0 1 1 0-1.056h30.943a.528.528 0 0 1 0 1.056zM9.026 7.818c-.922 0-1.672-.75-1.672-1.672s.75-1.672 1.672-1.672c.922 0 1.672.75 1.672 1.672s-.75 1.672-1.672 1.672zm0-2.287a.616.616 0 1 0 .002 1.232.616.616 0 0 0-.002-1.232zM3.891 7.802c-.922 0-1.672-.75-1.672-1.672s.75-1.672 1.672-1.672c.922 0 1.672.75 1.672 1.672s-.75 1.672-1.672 1.672zm0-2.287a.616.616 0 1 0 .002 1.232.616.616 0 0 0-.002-1.232zM14.163 7.834c-.921 0-1.672-.75-1.672-1.672s.75-1.672 1.672-1.672c.922 0 1.672.75 1.672 1.672s-.75 1.672-1.672 1.672zm0-2.287a.616.616 0 1 0 .002 1.232.616.616 0 0 0-.002-1.232z" style="fill:var(--color2, #4985ff)"/>
    </symbol>
    <symbol id="icon-features" viewBox="0 0 32 32">
      <path fill="none" stroke="#4985ff" stroke-width=".356" d="M31.822 16c0 8.738-7.084 15.822-15.822 15.822S.178 24.738.178 16 7.262.178 16 .178 31.822 7.262 31.822 16z" style="stroke:var(--color2, #4985ff)"/>
      <path fill="#4985ff" d="M22.874 8.889H12.207a.237.237 0 0 0-.237.237v3.556h.474V9.363h10.193V22.4a.233.233 0 0 1-.218.237l-.061-.002c-.042-.001-.084-.002-.125-.006l-.01-.001a1.662 1.662 0 0 1-1.482-1.649v-.474a.237.237 0 0 0-.237-.237h-8.059v-4.267h-.474v4.267h-1.896a.237.237 0 0 0-.237.237v.474a2.135 2.135 0 0 0 2.133 2.133h10.453a.705.705 0 0 0 .687-.711V9.127a.237.237 0 0 0-.237-.237zM11.97 22.637a1.66 1.66 0 0 1-1.659-1.659v-.237h9.956v.237c0 .078.005.156.014.234.002.021.006.041.009.061.008.057.017.114.03.171.004.02.01.039.015.059a2.04 2.04 0 0 0 .14.389l.017.034a2.002 2.002 0 0 0 .112.199c.039.061.08.119.125.175l.008.01a2.25 2.25 0 0 0 .325.328l-9.088-.001z" style="fill:var(--color2, #4985ff)"/>
      <path fill="#4985ff" d="M16.711 15.526a.24.24 0 0 0 .168-.069l.948-.948a.236.236 0 0 0 0-.335l-.948-.948a.238.238 0 0 0-.168-.069h-6.637a1.185 1.185 0 1 0 0 2.37h6.637zm-.061-1.859.674.674-.674.674-.169-.674.169-.674zm-5.865-.037h5.386l-.119.474h-4.793v.474h4.793l.119.474h-5.386V13.63zm-1.422.711a.71.71 0 0 1 .711-.711h.237v1.422h-.237a.71.71 0 0 1-.711-.711zM14.34 19.081h7.111a.237.237 0 0 0 .237-.237v-7.111a.237.237 0 0 0-.405-.168l-7.111 7.111a.237.237 0 0 0 .168.404zm6.875-6.775v.613h-.474v.474h.474v.474h-.474v.474h.474v.474h-.474v.474h.474v.474h-.474v.474h.474v.474h-.474v.474h.474v.474h-.474v.474h.474v.474h-.474v-.474h-.474v.474h-.474v-.474h-.474v.474h-.474v-.474h-.474v.474h-.474v-.474h-.474v.474h-.474v-.474h-.474v.474h-.474v-.474h-.474v.474h-.613l6.302-6.302z" style="fill:var(--color2, #4985ff)"/>
      <path fill="#4985ff" d="M17.774 17.659h2.255a.237.237 0 0 0 .237-.237v-2.255a.237.237 0 0 0-.405-.168l-2.255 2.255a.236.236 0 0 0 .168.404zm2.019-1.92v1.446h-1.446l1.446-1.446zM19.793 10.311h-4.741v.474h4.741v-.474zM20.504 11.259h-6.163v.474h6.163v-.474zM14.341 16.237h-1.422v.474h1.422v-.474zM13.867 17.185h-.948v.474h.948v-.474z" style="fill:var(--color2, #4985ff)"/>
    </symbol>
  </defs>
</svg>
